<svg xmlns="http://www.w3.org/2000/svg" xmlns:xlink="http://www.w3.org/1999/xlink" width="500" zoomAndPan="magnify" viewBox="0 0 375 374.999991" height="500" preserveAspectRatio="xMidYMid meet" version="1.0"><defs><clipPath id="07fc9c4f12"><path d="M 35 32.363281 L 340 32.363281 L 340 337.613281 L 35 337.613281 Z M 35 32.363281 " clip-rule="nonzero"/></clipPath><clipPath id="1ae5de5d4d"><path d="M 75 278.332031 L 110.59375 278.332031 L 110.59375 312 L 75 312 Z M 75 278.332031 " clip-rule="nonzero"/></clipPath><clipPath id="efcef77546"><path d="M 67.09375 281 L 106 281 L 106 319.582031 L 67.09375 319.582031 Z M 67.09375 281 " clip-rule="nonzero"/></clipPath></defs><g clip-path="url(#07fc9c4f12)"><path fill="#040606" d="M 329.769531 98.902344 L 304.375 98.902344 L 304.375 48.109375 L 329.769531 48.109375 Z M 263.046875 98.800781 C 262.691406 98.839844 262.335938 98.941406 261.996094 99.058594 L 215.589844 116.0625 C 212.199219 117.292969 209.28125 115.726562 207.914062 113.007812 C 207.101562 111.378906 207.039062 109.476562 207.714844 107.789062 C 208.371094 106.121094 209.660156 104.890625 211.34375 104.277344 L 243.765625 92.394531 C 249.539062 90.269531 253.425781 84.675781 253.425781 78.484375 C 253.425781 75.527344 252.574219 72.671875 250.945312 70.230469 C 247.8125 65.53125 242.414062 63.070312 236.859375 63.742188 L 232.375 64.320312 C 230.789062 60.75 227.238281 58.269531 223.109375 58.269531 L 193.925781 58.269531 L 225.035156 44.320312 C 227.613281 43.171875 230.390625 42.773438 233.109375 43.191406 L 294.21875 52.476562 L 294.21875 94.476562 Z M 233.269531 74.4375 L 238.128906 73.824219 C 239.855469 73.605469 241.523438 74.398438 242.515625 75.867188 C 243.011719 76.640625 243.269531 77.511719 243.269531 78.484375 C 243.269531 80.46875 242.078125 82.195312 240.253906 82.871094 L 233.269531 85.429688 Z M 223.109375 170.007812 L 131.6875 170.007812 L 131.6875 68.425781 L 223.109375 68.425781 L 223.109375 89.140625 L 207.875 94.734375 C 203.527344 96.300781 200.035156 99.675781 198.289062 103.980469 C 196.523438 108.34375 196.703125 113.265625 198.808594 117.53125 C 201.625 123.144531 207.21875 126.636719 213.449219 126.636719 C 215.3125 126.636719 217.199219 126.300781 219.0625 125.605469 L 223.109375 124.136719 Z M 294.316406 159.847656 C 295.507812 159.847656 296.617188 160.5625 297.113281 161.632812 L 309.335938 188.539062 C 309.574219 189.074219 309.414062 189.507812 309.234375 189.769531 C 309.078125 190.027344 308.761719 190.324219 308.222656 190.324219 L 46.574219 190.324219 C 46.019531 190.324219 45.722656 190.027344 45.5625 189.769531 C 45.382812 189.507812 45.226562 189.074219 45.445312 188.578125 L 57.683594 161.65625 C 58.199219 160.5625 59.292969 159.847656 60.484375 159.847656 L 121.53125 159.847656 L 121.53125 170.007812 L 106.292969 170.007812 C 103.496094 170.007812 101.214844 172.289062 101.214844 175.085938 C 101.214844 177.882812 103.496094 180.164062 106.292969 180.164062 L 248.507812 180.164062 C 251.304688 180.164062 253.585938 177.882812 253.585938 175.085938 C 253.585938 172.289062 251.304688 170.007812 248.507812 170.007812 L 233.269531 170.007812 L 233.269531 159.847656 Z M 45.34375 230.957031 L 45.34375 200.324219 C 45.761719 200.363281 46.15625 200.480469 46.574219 200.480469 L 308.222656 200.480469 C 308.660156 200.480469 309.039062 200.363281 309.453125 200.324219 L 309.453125 230.957031 Z M 294.21875 322.378906 C 294.21875 325.175781 291.9375 327.457031 289.136719 327.457031 L 65.660156 327.457031 C 62.863281 327.457031 60.582031 325.175781 60.582031 322.378906 L 60.582031 241.113281 L 294.21875 241.113281 Z M 329.769531 37.953125 L 304.375 37.953125 C 300.863281 37.953125 297.769531 39.738281 295.945312 42.476562 L 234.636719 33.132812 C 229.976562 32.4375 225.214844 33.109375 220.867188 35.054688 L 185 51.144531 C 181.386719 52.734375 178.214844 55.210938 175.773438 58.269531 L 131.6875 58.269531 C 126.09375 58.269531 121.53125 62.832031 121.53125 68.425781 L 121.53125 149.691406 L 60.484375 149.691406 C 55.324219 149.691406 50.582031 152.726562 48.441406 157.449219 L 36.199219 184.390625 C 35.523438 185.898438 35.265625 187.484375 35.265625 189.054688 L 35.1875 189.054688 L 35.1875 230.957031 C 35.1875 236.550781 39.75 241.113281 45.34375 241.113281 L 50.421875 241.113281 L 50.421875 322.378906 C 50.421875 330.789062 57.25 337.613281 65.660156 337.613281 L 289.136719 337.613281 C 297.550781 337.613281 304.375 330.789062 304.375 322.378906 L 304.375 241.113281 L 309.453125 241.113281 C 315.050781 241.113281 319.613281 236.550781 319.613281 230.957031 L 319.613281 189.054688 L 319.53125 189.054688 C 319.511719 187.464844 319.253906 185.878906 318.582031 184.371094 L 306.359375 157.429688 C 304.195312 152.726562 299.476562 149.691406 294.316406 149.691406 L 233.269531 149.691406 L 233.269531 120.40625 L 264.972656 108.78125 L 295.921875 104.496094 C 297.730469 107.253906 300.84375 109.058594 304.375 109.058594 L 329.769531 109.058594 C 335.367188 109.058594 339.929688 104.496094 339.929688 98.902344 L 339.929688 48.109375 C 339.929688 42.515625 335.367188 37.953125 329.769531 37.953125 " fill-opacity="1" fill-rule="nonzero"/></g><g clip-path="url(#1ae5de5d4d)"><path fill="#0c0015" d="M 75.460938 297.753906 C 75.507812 297.210938 75.734375 296.726562 76.066406 296.289062 C 77.230469 294.738281 79.84375 294.027344 81.671875 295.171875 C 82.75 295.84375 83.613281 296.710938 84.332031 297.734375 C 84.929688 298.585938 85.46875 299.480469 86.050781 300.378906 C 86.457031 299.796875 86.863281 299.199219 87.285156 298.609375 C 90.886719 293.539062 94.839844 288.78125 99.429688 284.585938 C 102.242188 282.015625 105.472656 280.101562 108.945312 278.589844 C 109.546875 278.328125 110.046875 278.433594 110.5625 278.957031 C 110.324219 279.179688 110.089844 279.398438 109.859375 279.621094 C 106.824219 282.519531 103.855469 285.480469 101.160156 288.703125 C 99.617188 290.542969 98.1875 292.484375 96.71875 294.386719 C 93.753906 298.21875 91.539062 302.527344 89.019531 306.648438 C 88.046875 308.238281 87.085938 309.832031 86.113281 311.421875 C 85.726562 312.054688 85.214844 312.042969 84.828125 311.398438 C 83.570312 309.304688 82.574219 307.078125 81.636719 304.824219 C 80.855469 302.941406 79.972656 301.105469 78.855469 299.394531 C 78.304688 298.546875 77.652344 297.851562 76.582031 297.757812 C 76.21875 297.726562 75.851562 297.753906 75.460938 297.753906 Z M 75.460938 297.753906 " fill-opacity="1" fill-rule="nonzero"/></g><g clip-path="url(#efcef77546)"><path fill="#0c0015" d="M 102.707031 291.199219 L 99.753906 294.179688 C 100.609375 296.082031 101.082031 298.195312 101.082031 300.417969 C 101.082031 308.792969 94.363281 315.578125 86.078125 315.578125 C 77.792969 315.578125 71.074219 308.792969 71.074219 300.417969 C 71.074219 292.042969 77.792969 285.253906 86.078125 285.253906 C 88.148438 285.253906 90.121094 285.679688 91.914062 286.445312 L 94.886719 283.441406 C 92.257812 282.042969 89.257812 281.253906 86.078125 281.253906 C 75.605469 281.253906 67.113281 289.832031 67.113281 300.417969 C 67.113281 311.003906 75.605469 319.582031 86.078125 319.582031 C 96.550781 319.582031 105.042969 311 105.042969 300.417969 C 105.042969 297.074219 104.195312 293.933594 102.707031 291.199219 Z M 102.707031 291.199219 " fill-opacity="1" fill-rule="nonzero"/></g></svg>